<?xml version="1.0" standalone="no"?>
<!DOCTYPE svg PUBLIC "-//W3C//DTD SVG 20010904//EN"
 "http://www.w3.org/TR/2001/REC-SVG-20010904/DTD/svg10.dtd">
<svg version="1.0" xmlns="http://www.w3.org/2000/svg"
 width="300.000000pt" height="284.000000pt" viewBox="0 0 300.000000 284.000000"
 preserveAspectRatio="xMidYMid meet">
<metadata>
Created by potrace 1.10, written by Peter Selinger 2001-2011
</metadata>
<g transform="translate(0.000000,284.000000) scale(0.100000,-0.100000)"
fill="#000000" stroke="none">
<path d="M1287 2814 c-132 -24 -268 -106 -391 -234 -43 -45 -76 -84 -73 -86 3
-3 26 17 52 45 116 124 277 225 408 256 145 34 323 9 452 -66 79 -45 251 -190
260 -220 4 -10 13 -19 20 -19 22 0 35 -33 33 -86 -3 -66 21 -102 73 -110 41
-7 51 -19 22 -28 -10 -3 -36 -24 -59 -45 l-40 -40 -1 64 c-1 66 -40 175 -62
175 -6 0 -11 7 -11 15 0 8 -7 15 -15 15 -27 0 -16 29 13 32 26 3 26 4 -21 35
-101 67 -229 64 -335 -8 -69 -46 -105 -97 -112 -157 l-5 -44 -81 -2 -81 -1
-16 45 c-23 65 -78 124 -149 159 -51 26 -73 31 -132 31 -75 0 -141 -23 -182
-61 -21 -19 -24 -20 -53 -5 -18 10 -31 24 -31 35 0 19 60 103 93 130 29 24 19
34 -27 29 -150 -17 -416 -261 -505 -463 -87 -197 -57 -453 66 -570 93 -88 203
-84 281 11 44 54 52 99 43 244 l-9 125 26 22 c14 12 29 20 34 17 4 -3 8 -58 8
-122 0 -138 16 -210 66 -299 75 -134 165 -207 374 -303 52 -24 96 -45 98 -46
2 -1 -2 -12 -8 -24 -12 -23 -12 -23 -110 -1 -25 6 -69 10 -99 11 -29 0 -121
14 -204 31 -82 16 -166 29 -186 27 -31 -3 -36 -7 -39 -31 -6 -54 -15 -52 308
-83 30 -2 99 -9 152 -14 121 -12 148 -18 148 -37 0 -12 -17 -13 -107 -8 -60 3
-146 10 -193 15 -47 5 -158 13 -248 16 l-163 7 3 -94 3 -94 44 1 c50 1 74 23
65 61 l-6 23 93 -6 c52 -3 130 -9 174 -14 194 -23 347 -32 358 -21 6 6 14 11
17 11 4 0 8 -125 9 -277 1 -153 6 -357 11 -453 5 -96 10 -181 10 -188 0 -17
-197 -12 -425 12 -215 22 -205 19 -205 64 0 49 -10 62 -53 69 -59 9 -66 -4
-60 -110 3 -51 11 -97 17 -104 6 -6 74 -16 161 -23 83 -6 170 -13 195 -15 247
-21 526 -22 685 -1 269 35 556 85 573 98 13 11 18 152 6 182 -8 21 -67 21 -88
0 -9 -8 -16 -28 -16 -44 0 -16 -6 -32 -12 -37 -7 -4 -58 -15 -113 -24 -121
-20 -320 -54 -396 -69 -30 -5 -69 -10 -86 -10 l-30 0 -7 433 c-4 237 -7 450
-6 472 1 51 16 67 30 31 9 -26 13 -27 57 -21 27 3 71 11 98 16 28 6 100 19
160 30 61 10 144 25 185 34 146 28 130 30 130 -19 0 -48 11 -56 78 -56 l32 0
0 106 0 107 -62 -7 c-35 -3 -85 -10 -113 -15 -27 -5 -79 -14 -115 -20 -36 -6
-75 -13 -87 -16 -19 -4 -23 -1 -23 19 0 18 7 25 28 29 15 3 74 14 131 25 125
24 153 48 117 97 -14 19 -16 19 -78 2 -127 -37 -175 -49 -278 -72 -99 -22
-225 -63 -218 -70 4 -5 215 46 398 96 80 22 148 39 153 39 4 0 7 -13 7 -30 0
-24 -4 -30 -21 -30 -29 0 -218 -38 -249 -50 -42 -17 -280 -48 -308 -41 -17 5
-28 15 -30 28 -3 20 23 37 274 179 72 41 168 153 221 260 l48 97 1 171 c0 94
4 181 8 193 7 21 34 38 44 28 9 -8 21 -165 21 -276 1 -145 26 -197 118 -243
153 -77 318 126 298 368 -17 209 -87 342 -267 510 -98 92 -201 153 -296 177
-69 17 -84 4 -49 -43 13 -18 27 -48 31 -67 l6 -34 -22 19 c-12 10 -36 32 -52
48 -100 96 -219 161 -334 181 -104 18 -170 18 -275 -1z m737 -135 c163 -61
349 -235 436 -409 49 -98 63 -163 64 -285 1 -119 -21 -186 -85 -259 -69 -79
-156 -86 -230 -19 -50 45 -57 73 -65 258 -3 83 -10 168 -15 190 -14 64 -13 65
35 65 25 0 47 4 50 8 3 5 2 30 -2 58 l-8 49 -57 -3 -57 -3 0 71 c0 63 -4 80
-35 139 -19 36 -53 85 -75 109 -22 24 -40 45 -40 47 0 10 31 4 84 -16z m-1205
-66 c-19 -21 -41 -46 -48 -55 -21 -27 -51 -158 -51 -220 l0 -58 -55 0 c-61 0
-59 2 -49 -74 l7 -47 46 3 c37 2 45 0 41 -12 -2 -8 -5 -108 -5 -221 -1 -230
-4 -243 -77 -301 -29 -25 -45 -30 -86 -30 -61 1 -97 18 -143 69 -80 89 -111
217 -91 373 20 145 95 284 225 414 103 103 245 195 302 196 16 0 14 -6 -16
-37z m1062 -159 c36 -18 86 -69 106 -108 24 -44 21 -131 -5 -183 -43 -83 -143
-131 -233 -112 -235 51 -238 383 -4 419 51 8 102 2 136 -16z m-754 -25 c163
-79 162 -306 -1 -392 -55 -28 -146 -29 -201 -2 -84 43 -140 163 -116 253 35
128 197 200 318 141z m-298 -5 c8 -7 -36 -85 -45 -82 -16 5 -24 -104 -12 -156
11 -49 37 -103 67 -140 13 -16 14 -18 1 -11 -40 23 -70 50 -71 64 0 11 -2 12
-6 3 -2 -6 -9 -10 -14 -6 -5 3 -4 14 2 27 9 16 9 22 0 25 -6 2 -11 10 -11 17
0 15 -42 45 -63 45 -24 0 -14 29 12 35 43 10 71 40 71 75 0 17 5 51 11 76 10
39 14 44 33 38 11 -4 23 -8 25 -10z m491 -144 c15 -15 27 -18 51 -13 22 4 30
3 25 -5 -4 -6 -13 -9 -21 -5 -8 3 -15 0 -15 -7 0 -6 -5 -8 -10 -5 -6 3 -14 -4
-19 -17 -6 -13 -10 -19 -10 -14 -1 5 -8 3 -16 -4 -13 -11 -15 -6 -15 39 0 28
2 51 5 51 3 0 14 -9 25 -20z m204 -20 c-5 -28 -3 -40 5 -40 7 0 9 -5 6 -11 -5
-6 -13 -2 -22 11 -8 12 -25 25 -37 30 -20 8 -20 8 7 19 15 6 27 15 27 21 0 5
5 10 10 10 6 0 8 -15 4 -40z m-30 -85 c13 -60 27 -86 73 -131 66 -64 124 -88
213 -88 86 0 133 19 213 86 l49 41 -4 -149 c-4 -143 -5 -152 -36 -218 -39 -82
-107 -181 -155 -223 -32 -28 -136 -92 -281 -172 -32 -18 -68 -42 -80 -53 -32
-30 -54 -40 -61 -27 -4 6 -75 44 -159 84 -194 94 -255 132 -311 192 -49 52
-107 147 -131 215 -15 41 -39 277 -29 286 2 2 18 -9 35 -26 16 -17 56 -40 88
-52 112 -43 240 -12 333 80 52 51 75 91 87 147 7 35 11 39 47 44 22 3 54 5 70
5 27 -1 31 -6 39 -41z m-614 -890 c63 -13 153 -26 200 -30 86 -7 257 -39 268
-50 3 -3 1 -10 -4 -15 -6 -6 -26 -4 -56 5 -26 7 -80 17 -120 20 -228 20 -464
47 -470 53 -4 4 -5 17 -2 29 7 25 -5 26 184 -12z m1360 -136 c0 -79 -2 -90
-16 -85 -9 3 -24 6 -34 6 -15 0 -19 9 -22 48 -3 46 -4 47 -33 44 -48 -4 -375
-62 -435 -77 -30 -8 -79 -15 -108 -17 l-53 -3 -14 38 c-7 20 -12 37 -11 38 0
1 19 3 41 4 43 4 243 33 475 70 80 13 160 24 178 24 l32 1 0 -91z m-844 60 c4
-7 24 -9 55 -6 62 8 83 -12 51 -46 -17 -18 -30 -22 -57 -19 -19 2 -35 8 -35
13 0 5 -7 6 -15 3 -8 -4 -15 -12 -15 -20 0 -10 13 -14 46 -14 38 0 45 -3 42
-17 -2 -10 -18 -22 -37 -27 -30 -8 -36 -7 -52 13 -12 14 -19 18 -19 10 0 -8
-9 -1 -20 16 -21 32 -13 55 22 55 10 0 17 4 13 9 -3 5 0 13 7 17 8 5 6 10 -8
15 -16 6 -16 8 -2 8 9 1 20 -4 24 -10z m-441 -55 c105 -8 222 -16 260 -17 l70
-3 3 -37 c4 -45 24 -43 -241 -17 -111 10 -242 21 -292 22 l-90 3 -5 -39 c-4
-33 -10 -41 -32 -47 -15 -4 -29 -4 -32 -1 -3 3 -6 41 -6 84 l0 79 88 -6 c48
-3 173 -13 277 -21z m519 -339 c3 -99 9 -289 12 -423 l7 -243 -64 3 -64 3 -7
270 c-3 149 -8 338 -11 420 l-4 150 62 0 63 0 6 -180z m754 -587 l-3 -83 -200
-32 c-526 -84 -523 -84 -757 -73 -193 8 -627 46 -636 54 -1 2 -5 43 -8 90 l-4
87 37 -3 c37 -3 38 -4 43 -50 3 -26 8 -49 10 -52 3 -2 52 -9 110 -15 279 -30
410 -38 585 -36 160 3 218 8 370 34 99 18 222 38 274 46 52 9 98 21 103 28 4
6 8 26 8 43 0 38 6 44 42 44 l29 0 -3 -82z"/>
<path d="M1729 2337 c-47 -36 -48 -111 -2 -147 31 -24 54 -25 93 -5 85 44 57
165 -37 165 -21 0 -45 -6 -54 -13z m94 -63 c4 -25 -14 -54 -35 -54 -8 0 -24 9
-36 20 -18 17 -20 25 -12 41 16 28 77 24 83 -7z"/>
<path d="M979 2315 c-57 -31 -59 -125 -3 -162 53 -34 144 12 144 73 0 40 -27
81 -61 93 -40 14 -48 13 -80 -4z m86 -58 c16 -23 6 -50 -26 -68 -16 -8 -25 -7
-40 7 -21 19 -24 36 -9 63 13 25 57 24 75 -2z"/>
<path d="M1327 1960 c-21 -4 -46 -14 -55 -23 -38 -39 4 -148 73 -188 29 -17
34 -26 37 -66 7 -88 -48 -144 -145 -147 -45 -1 -52 -4 -55 -22 -11 -76 122
-69 216 11 l33 28 32 -29 c17 -16 33 -32 35 -36 2 -4 27 -12 56 -19 46 -10 58
-9 89 6 40 19 43 25 26 56 -8 16 -17 18 -44 13 -82 -15 -152 46 -162 140 -5
47 -3 55 13 60 25 9 84 90 96 132 11 41 -2 71 -38 84 -29 11 -151 11 -207 0z
m187 -43 c16 -12 17 -17 6 -36 -6 -13 -7 -21 -2 -17 6 4 8 -2 5 -14 -3 -11 -9
-18 -13 -15 -5 3 -11 -3 -15 -14 -3 -11 -17 -26 -30 -35 -14 -9 -25 -23 -25
-31 0 -25 -23 -16 -71 28 -43 39 -80 110 -65 124 20 21 185 28 210 10z m-66
-317 c10 -17 10 -20 -6 -20 -24 0 -32 8 -25 26 7 19 16 18 31 -6z"/>
<path d="M1660 1830 c-16 -30 4 -62 37 -58 38 4 52 32 29 57 -24 27 -52 27
-66 1z"/>
<path d="M1102 1818 c-36 -36 6 -91 46 -62 35 24 23 74 -18 74 -9 0 -21 -5
-28 -12z"/>
<path d="M1606 1704 c-9 -8 -16 -22 -16 -29 0 -15 27 -45 40 -45 25 0 40 15
40 39 0 47 -34 65 -64 35z"/>
<path d="M1190 1686 c-20 -25 -8 -61 22 -64 31 -4 46 25 28 58 -13 24 -33 26
-50 6z"/>
<path d="M1720 1681 c-15 -30 -12 -49 11 -61 16 -9 25 -8 40 6 24 22 24 50 0
64 -28 15 -39 13 -51 -9z"/>
<path d="M1085 1674 c-19 -20 -16 -53 7 -68 13 -8 22 -6 37 8 26 24 27 52 2
66 -25 13 -27 13 -46 -6z"/>
<path d="M1970 1426 c-60 -11 -117 -33 -108 -41 2 -2 23 3 47 11 24 8 51 13
60 11 9 -2 -10 -11 -41 -21 -32 -10 -62 -15 -67 -12 -11 7 -61 -14 -61 -26 0
-11 17 -10 80 7 81 21 190 67 184 76 -6 11 -11 10 -94 -5z"/>
<path d="M763 1413 c-22 -8 -14 -24 21 -38 59 -25 269 -76 295 -72 22 3 16 8
-41 35 -64 30 -227 83 -252 81 -6 0 -17 -3 -23 -6z m177 -50 c47 -13 90 -29
95 -34 7 -7 5 -9 -5 -6 -8 3 -66 18 -127 33 -62 15 -113 32 -113 37 0 11 40 3
150 -30z"/>
<path d="M2040 997 c-133 -31 -216 -115 -260 -264 -27 -90 33 -231 127 -296
91 -63 224 -83 334 -51 92 27 149 79 200 181 29 57 31 69 27 130 -3 45 -14 85
-31 118 -31 62 -112 139 -172 165 -59 26 -156 33 -225 17z m226 -42 c105 -51
170 -141 181 -249 11 -110 -60 -231 -165 -283 -50 -25 -68 -28 -147 -28 -153
1 -257 60 -315 180 -45 93 -24 210 55 303 90 107 262 140 391 77z"/>
<path d="M2059 909 c-37 -37 -2 -119 52 -119 46 0 67 96 27 124 -30 22 -54 20
-79 -5z"/>
<path d="M1945 860 c-17 -27 41 -98 71 -86 12 5 14 13 9 34 -3 15 -12 32 -18
38 -18 18 -55 26 -62 14z"/>
<path d="M2206 863 c-18 -18 -36 -77 -27 -86 16 -16 60 9 67 38 11 42 -15 73
-40 48z"/>
<path d="M2289 779 c-14 -14 -19 -30 -17 -52 3 -28 7 -32 34 -35 34 -3 49 9
59 49 4 18 1 31 -10 43 -22 21 -41 20 -66 -5z"/>
<path d="M1886 739 c-31 -24 -35 -68 -8 -92 26 -23 55 -21 80 6 27 29 28 61 2
87 -25 25 -41 25 -74 -1z"/>
<path d="M2047 686 c-35 -35 -77 -110 -77 -138 0 -9 9 -26 19 -39 l19 -24 64
17 c41 10 85 14 126 11 73 -6 92 5 92 51 -1 31 -42 85 -105 134 -43 34 -97 30
-138 -12z m99 -16 c32 -12 94 -75 94 -95 0 -18 -25 -24 -88 -21 -29 2 -55 0
-58 -5 -3 -5 -21 -9 -40 -9 -26 0 -34 4 -34 18 1 23 45 98 54 92 4 -3 12 3 17
13 12 20 18 21 55 7z"/>
<path d="M613 946 c-88 -29 -170 -102 -214 -193 -28 -59 -24 -176 10 -241 62
-120 151 -172 301 -174 76 -2 94 2 143 26 32 15 75 48 101 77 140 156 105 379
-77 484 -40 23 -62 28 -135 31 -56 3 -102 -1 -129 -10z m247 -34 c65 -34 99
-69 131 -137 82 -171 -29 -379 -221 -413 -102 -19 -229 18 -292 85 -75 79 -98
236 -46 323 41 69 109 130 170 151 75 27 196 23 258 -9z"/>
<path d="M736 849 c-51 -40 -17 -97 51 -86 61 10 80 50 41 87 -28 26 -58 26
-92 -1z"/>
<path d="M604 826 c-13 -34 44 -82 68 -58 16 16 3 39 -32 57 -26 14 -31 14
-36 1z"/>
<path d="M846 695 c-33 -14 -49 -43 -34 -62 17 -21 105 -16 128 7 24 24 25 34
4 54 -18 19 -58 19 -98 1z"/>
<path d="M690 532 c-19 -9 -36 -24 -38 -34 -3 -13 10 -17 82 -23 63 -5 90 -4
101 5 18 15 19 42 3 58 -18 18 -108 15 -148 -6z"/>
</g>
</svg>
